<svg width="282" height="282" viewBox="-0.388 -13.407 282.0005 282.0005" xml:space="preserve" xmlns:xlink="http://www.w3.org/1999/xlink" xmlns="http://www.w3.org/2000/svg">
  <defs>
    <linearGradient id="a" gradientUnits="userSpaceOnUse" x1="-141" y1="0" x2="141" y2="0">
      <stop offset="0.0002" stop-color="#e5e5be"/>
      <stop offset="0.1149" stop-color="#c9dec1"/>
      <stop offset="0.4504" stop-color="#79cbca"/>
      <stop offset="0.7302" stop-color="#78b3cf"/>
      <stop offset="1" stop-color="#77a1d3"/>
    </linearGradient>
    <linearGradient id="b" gradientUnits="userSpaceOnUse" x1="-141" y1="0" x2="141" y2="0" xlink:href="#a">
      <stop offset="0" stop-color="#77a1d3"/>
      <stop offset="0.2698" stop-color="#78b3cf"/>
      <stop offset="0.5496" stop-color="#79cbca"/>
      <stop offset="0.8851" stop-color="#c9dec1"/>
      <stop offset="0.9998" stop-color="#e5e5be"/>
    </linearGradient>
    <linearGradient xlink:href="#a" id="c" gradientUnits="userSpaceOnUse" x1="-141" y1="0" x2="141" y2="0"/>
    <linearGradient xlink:href="#a" id="d" gradientUnits="userSpaceOnUse" x1="-141" y1="0" x2="141" y2="0"/>
    <linearGradient xlink:href="#a" id="i" gradientUnits="userSpaceOnUse" x1="-141" y1="0" x2="141" y2="0"/>
    <linearGradient xlink:href="#a" id="j" gradientUnits="userSpaceOnUse" x1="-141" y1="0" x2="141" y2="0"/>
    <linearGradient xlink:href="#a" id="f" gradientUnits="userSpaceOnUse" x1="-141" y1="0" x2="141" y2="0"/>
    <linearGradient xlink:href="#a" id="e" gradientUnits="userSpaceOnUse" x1="-141" y1="0" x2="141" y2="0"/>
    <linearGradient xlink:href="#a" id="k" gradientUnits="userSpaceOnUse" x1="-141" y1="0" x2="141" y2="0"/>
    <linearGradient xlink:href="#a" id="l" gradientUnits="userSpaceOnUse" x1="-141" y1="0" x2="141" y2="0"/>
    <linearGradient xlink:href="#a" id="n" gradientUnits="userSpaceOnUse" x1="-141" y1="0" x2="141" y2="0"/>
    <linearGradient xlink:href="#a" id="m" gradientUnits="userSpaceOnUse" x1="-141" y1="0" x2="141" y2="0"/>
    <linearGradient xlink:href="#a" id="g" gradientUnits="userSpaceOnUse" x1="-141" y1="0" x2="141" y2="0"/>
    <linearGradient xlink:href="#a" id="h" gradientUnits="userSpaceOnUse" x1="-141" y1="0" x2="141" y2="0"/>
  </defs>
  <path d="M-136.832 205 0-32l136.832 237Z" fill="url(#b)" stroke="url(#b)" stroke-width="7.55906" stroke-linejoin="round" transform="translate(140.61125 35.779152)" style="mix-blend-mode:normal"/>
  <path d="M0 42.475758s12.576513-.09628 20.280565 2.843738c13.236079 5.051142 14.974006-9.56908 31.809941-10.860721 12.079572-.926736 31.995128-31.0096601 39.6754-28.2353708 2.22063.8021425 5.337285 52.9818408-.53188 70.0797858-6.979745 20.333265-20.656165 18.994101-17.638418 23.151317 2.356378 3.246123 13.841054 49.536433 8.24683 36.795983-4.165985-9.48773-18.270559-12.15032-15.653871-10.05043 9.194432 7.37852 19.299807 47.02199 14.120478 36.138-1.350444-2.83786-9.210632-12.73863-7.657194-9.90188.94445 1.72467 6.378246 18.24508 2.605337 26.77985-.707286 1.59997-6.73573-31.52626-12.757364-29.94187-2.129068.5602 10.60905 17.69728 2.026856 51.7554-.653708 2.59421.07193-9.64727-2.276508-9.27363-1.485254.2363-4.078136 14.58048-14.387291 21.67137-1.362077.93687 6.192304-20.65918 3.417937-21.88971-2.486576-1.10288-13.283404 3.97131-21.292186-.29447-2.987925-1.59148 7.703629 7.53563-6.519738 23.72804C19.460372 219.53461 0 218.31301 0 218.31301" transform="matrix(-1 0 0 1 140.61125 35.779152)" fill="#fff" stroke="url(#b)" stroke-width="4.00000709" stroke-linecap="round"/>
  <path d="M0 42.475758s12.576513-.09628 20.280565 2.843738c13.236079 5.051142 14.974006-9.56908 31.809941-10.860721 12.079572-.926736 31.995128-31.0096601 39.6754-28.2353708 2.22063.8021425 5.337285 52.9818408-.53188 70.0797858-6.979745 20.333265-20.656165 18.994101-17.638418 23.151317 2.356378 3.246123 13.841054 49.536433 8.24683 36.795983-4.165985-9.48773-18.270559-12.15032-15.653871-10.05043 9.194432 7.37852 19.299807 47.02199 14.120478 36.138-1.350444-2.83786-9.210632-12.73863-7.657194-9.90188.94445 1.72467 6.378246 18.24508 2.605337 26.77985-.707286 1.59997-3.650419-20.75911-12.757364-29.94187-1.550254-1.56316 10.60905 17.69728 2.026856 51.7554-.653708 2.59421.07193-9.64727-2.276508-9.27363-1.485254.2363-4.078136 14.58048-14.387291 21.67137-1.362077.93687 6.192304-20.65918 3.417937-21.88971-2.486576-1.10288-11.935814 7.60334-21.292186-.29447-2.586924-2.18365 7.703629 7.53563-6.519738 23.72804C19.460372 219.53461 0 218.31301 0 218.31301" fill="url(#c)" stroke="url(#d)" stroke-width="4.00001" transform="translate(140.61125 35.779152)"/>
  <path d="M0 42.475758s12.576513-.09628 20.280565 2.843738c13.236079 5.051142 14.974006-9.56908 31.809941-10.860721 12.079572-.926736 31.995128-31.0096601 39.6754-28.2353708 2.22063.8021425 5.337285 52.9818408-.53188 70.0797858-6.979745 20.333265-20.656165 18.994101-17.638418 23.151317 2.356378 3.246123 13.841054 49.536433 8.24683 36.795983-4.165985-9.48773-18.270559-12.15032-15.653871-10.05043 9.194432 7.37852 19.299807 47.02199 14.120478 36.138-1.350444-2.83786-9.210632-12.73863-7.657194-9.90188.94445 1.72467 6.378246 18.24508 2.605337 26.77985-.707286 1.59997-3.650419-20.75911-12.757364-29.94187-1.550254-1.56316 10.60905 17.69728 2.026856 51.7554-.653708 2.59421.07193-9.64727-2.276508-9.27363-1.485254.2363-4.078136 14.58048-14.387291 21.67137-1.362077.93687 6.192304-20.65918 3.417937-21.88971-2.486576-1.10288-11.935814 7.60334-21.292186-.29447-2.586924-2.18365 7.703629 7.53563-6.519738 23.72804C19.460372 219.53461 0 218.31301 0 218.31301" transform="matrix(-1 0 0 1 140.61125 35.779152)" fill="#fff" stroke="url(#b)" stroke-width="4.00000709" stroke-linecap="round"/>
  <path d="M169.169907 210.177992c-2.183768 1.13491.609936 2.59359 1.602817 7.49053 1.078083 5.31716-.501566 6.83002 1.456178 6.92582 16.718255.81806 22.851367-23.26493 22.102616-40.84017-.13073-3.06859-2.323915 14.555-25.161611 26.42382z" fill="#fff" stroke="#fff" stroke-width="1px"/>
  <path d="M-15.123486 119.73331c-.216145-1.05417-2.318835 2.21855-2.726809 1.24961-.407973-.96893-6.672773-17.50008-14.119631-19.96722-.791515-.26223 6.088796 10.31574 4.841854 9.95239-1.246943-.36335-6.199812-9.01971-13.440573-8.92636-.879937.0113 4.036581 2.79597 3.223172 2.75385-6.344352-.3285-14.1674-1.46365-25.062308 11.89437-.556257.68201 18.378009-6.00501 20.394386-.88055.373633.94955-4.967647 3.37495-4.870265 4.54629.02425.29173 6.550198-2.67685 5.950466 2.25093-.578223 4.75106 10.775463 7.39835 16.5393 3.79748 2.554597-1.59594-4.669197 8.8638-3.334295 8.39878 8.909659-3.10373 13.492324-10.74053 12.604703-15.06957z" fill="url(#e)" stroke="url(#f)" stroke-width="1px" transform="translate(140.61125 35.779152)"/>
  <path d="M165.914879 154.151852c-1.159343 0-.951382 3.77254.05424 3.93767 5.197687.85351 8.756805-4.1816 8.138659-9.22739-.18185-1.48441-3.165045 5.28972-8.192902 5.28972zm-50.607258 0c1.159343 0 .951382 3.77254-.05424 3.93767-5.197687.85351-8.756805-4.1816-8.138659-9.22739.18185-1.48441 3.165045 5.28972 8.192902 5.28972z" fill="#fff" stroke="#fff" stroke-width="1px"/>
  <path d="M28.558657 174.39884c-2.183768 1.13491.609936 2.59359 1.602817 7.49053 1.078083 5.31716-.501566 6.83002 1.456178 6.92582 16.718255.81806 22.851367-23.26493 22.102616-40.84017-.13073-3.06859-2.323915 14.555-25.161611 26.42382z" transform="matrix(-1 0 0 1 140.61125 35.779152)" fill="url(#b)" stroke="url(#b)" stroke-width="1px"/>
  <path d="M33.193999 184.68878c-1.088127.17468-.468585 2.69049.775493 2.24866 7.556004-2.68351 12.382585-8.42721 15.376094-17.80088.554342-1.73583-8.234819 14.28133-16.151587 15.55222z" fill="url(#g)" stroke="url(#h)" stroke-width="1px" transform="translate(140.61125 35.779152)"/>
  <path d="M168.294581 109.005844c.433846-20.934523 14.02819-28.619596 21.637038-30.542173 1.662327-.420031-8.343376 5.516054-5.752647 7.375159 1.109038.795844 5.727617-5.012692 15.947804-7.531493 13.238176-3.262596 18.818636-20.204155 18.594049-18.31948-3.75002 31.469161-29.897958 21.414108-37.13277 46.614297-.316181 1.101315-1.513367-2.356545-1.564443-5.846886-.05108-3.49034 1.083328-7.002612.372909-6.941772-6.267631.536761-12.138412 16.95224-12.10194 15.192348z" fill="#fff" stroke="#fff" stroke-width="1px"/>
  <path d="M-56.626053 93.933042c-9.560256 6.726618-27.90102-15.704923-26.693536-14.541488 1.207484 1.163434 15.949631 13.386161 13.339579 7.957946-2.495846-5.190696-19.969678-20.776532-13.93614-36.181755.317593-.810899 3.358299 7.488233 8.676604 12.316979 5.318305 4.828745 11.040242 6.2164 15.458247 7.796915 2.761884.988048-12.23997.764313-11.950113 1.532033 2.083201 5.517597 20.667074 9.697662 20.433974 10.64632-.61084 2.485961-15.657084-2.83269-15.675093-1.619614-.1187 7.995776 11.63 11.189574 10.346478 12.092664z" fill="url(#i)" stroke="url(#j)" stroke-width="1px" transform="translate(140.61125 35.779152)"/>
  <path d="M140.61125 80.255166c10.840102.348143 14.478617.28946 26.756254 4.905009 2.667519 1.002804-6.577705 14.100248-11.663195 23.317599-8.3706902 15.171713-13.5960774 34.809008-11.7775878 49.245258 1.4541016 11.54352 9.7289798 27.80472 15.4676738 31.65733 3.468177 2.32832-7.719556 6.56141-5.47191 10.25997 1.678534 2.76208 6.696631 5.90963 5.327815 13.69049-.328709 1.8685-9.0798778-.61004-18.63905 2.58933-.6594422.22071-.71345582-135.6879 0-135.664986Z" fill="#fff"/>
  <path d="M153.631524 146.243012c-.352874.89615-.244677-11.050981 11.220714-18.718802 3.295185-2.203754-5.761231 7.706421-3.546769 10.442362.698682.86321 5.5626-7.916119 11.210323-7.898738 8.534786.02627 14.432171 2.426603 20.036754 10.202388 7.344569 10.18983-18.102837-27.207081-32.313577 11.0854-1.042264 2.8085-1.12933-4.17706 1.938661-9.61709.910819-1.61502-6.770986-.004-8.546106 4.50448z" fill="#fff" stroke="#fff" stroke-width="1px"/>
  <path d="M140.61125 252.092472s18.012436 1.51278 21.924039-3.13401c11.087269-13.17113 6.55753-20.22403 5.58201-21.19541-9.323154-9.2836-18.7118342-15.47597-27.506049-16.9619-2.3795758-.40207 0 41.29132 0 41.29132z" fill="#fff"/>
  <path d="M10.093431 208.57594c2.523487 1.73942 7.978727-.28576 8.982993-3.18145 1.894516-5.46263-9.8991196-14.21224-10.7626298-13.175-2.0930818 2.5142-2.9301705 13.11001 1.7796368 16.35645zm-20.186862 0c-2.523487 1.73942-7.978727-.28576-8.982993-3.18145-1.894516-5.46263 9.8991196-14.21224 10.7626298-13.175 2.0930818 2.5142 2.9301705 13.11001-1.7796368 16.35645z" fill="url(#k)" stroke="url(#l)" stroke-width="1px" transform="translate(140.61125 35.779152)"/>
  <path d="M0 172.382c2.2868382.33965 6.2178011 1.93567 8.5671987 3.07455 1.9244303.93288 13.9337873 8.33813 2.4619603.0898C9.0735689 174.14027 6.4111061 172.37136 0 170.628m0 1.754c-2.2868382.33965-6.2178011 1.93567-8.5671987 3.07455-1.9244303.93288-13.9337873 8.33813-2.4619603.0898C-9.0735689 174.14027-6.4111061 172.37136 0 170.628m0 10.16654c2.6298639.3906 7.1504713 2.22602 9.8522785 3.53574 2.2130945 1.07281 16.0238555 9.58885 2.8312545.10327-2.248929-1.617-5.310761-3.65124-12.683533-5.65611m0 2.0171c-2.6298639.3906-7.1504713 2.22602-9.8522785 3.53574-2.2130945 1.07281-16.0238555 9.58885-2.8312545.10327 2.248929-1.617 5.310761-3.65124 12.683533-5.65611m0 10.42965c2.9728897.44154 8.0831414 2.51637 11.137358 3.99691 2.50176 1.21275 18.113924 10.83957 3.200549.11674C11.79564 191.49284 8.3344379 189.19326 0 186.92689m0 2.2802c-2.9728897.44154-8.0831414 2.51637-11.137358 3.99691-2.50176 1.21275-18.113924 10.83957-3.200549.11674 2.542267-1.8279 6.0034691-4.12748 14.337907-6.39385" transform="translate(140.99600146 57.430762) scale(.77061)" fill="url(#m)" stroke="url(#n)" stroke-width="1px"/>
  <path d="M107.417251 220.467932c1.088127.17468.468585 2.69049-.775493 2.24866-7.556004-2.68351-12.382585-8.42721-15.376094-17.80088-.554342-1.73583 8.234819 14.28133 16.151587 15.55222z" fill="#fff" stroke="#fff" stroke-width="1px"/>
</svg>
